<?xml version="1.0" standalone="no"?>
<!DOCTYPE svg PUBLIC "-//W3C//DTD SVG 20010904//EN"
 "http://www.w3.org/TR/2001/REC-SVG-20010904/DTD/svg10.dtd">
<svg version="1.0" xmlns="http://www.w3.org/2000/svg"
 width="1022.000000pt" height="1022.000000pt" viewBox="0 0 1022.000000 1022.000000"
 preserveAspectRatio="xMidYMid meet">
<metadata>
Created by potrace 1.11, written by Peter Selinger 2001-2013
</metadata>
<g transform="translate(0.000000,1022.000000) scale(0.100000,-0.100000)"
fill="#000000" stroke="none">
<path d="M2398 10215 c-2 -2 -57 -6 -123 -9 -66 -4 -142 -9 -170 -11 -27 -3
-104 -7 -170 -10 -66 -2 -120 -5 -120 -6 0 -2 -61 -6 -205 -14 -63 -3 -137 -8
-165 -10 -27 -2 -99 -6 -160 -9 -60 -3 -110 -6 -110 -7 0 -1 -27 -3 -60 -4
-84 -5 -249 -15 -320 -20 -33 -3 -98 -7 -145 -10 -47 -3 -114 -7 -150 -10
-145 -11 -227 -17 -258 -18 l-32 -1 2 -210 3 -211 30 -1 c17 -1 30 -3 30 -4 0
-1 12 -2 176 -14 48 -4 97 -9 110 -12 13 -2 44 -7 69 -9 25 -3 60 -8 78 -10
17 -3 49 -7 70 -10 78 -12 234 -68 294 -107 111 -72 235 -218 295 -348 26 -56
55 -138 58 -167 2 -11 6 -31 10 -43 4 -12 9 -34 11 -48 6 -39 15 -365 13 -517
0 -71 0 -236 1 -365 1 -129 1 -242 1 -250 -1 -8 -1 -60 -1 -115 0 -55 -1 -158
-1 -230 0 -71 0 -236 1 -365 1 -129 1 -242 1 -250 -1 -8 -1 -60 -1 -115 0 -55
-1 -149 -1 -210 -1 -60 -1 -116 0 -122 1 -7 1 -21 1 -30 0 -53 0 -222 0 -248
-1 -16 -1 -36 -1 -42 1 -24 2 -230 1 -278 -1 -16 -1 -36 -1 -42 1 -24 2 -230
1 -278 -1 -16 -1 -36 -1 -42 1 -15 1 -16 1 -153 0 -58 1 -112 1 -120 0 -45 0
-547 0 -560 -1 -8 -1 -60 -1 -115 0 -55 -1 -158 -1 -230 0 -71 0 -308 1 -525
0 -217 1 -402 1 -410 -1 -8 -1 -60 -1 -115 0 -55 -1 -158 -1 -230 0 -71 0
-199 0 -282 1 -84 1 -161 1 -170 0 -10 0 -63 0 -118 0 -55 0 -113 0 -130 -1
-16 -1 -36 -1 -42 1 -24 2 -230 1 -278 -1 -16 -1 -36 -1 -42 1 -24 2 -230 1
-278 -1 -16 -1 -36 -1 -42 1 -20 1 -42 0 -120 -1 -39 2 -76 5 -81 3 -6 2 -13
-4 -17 -7 -4 -7 -12 0 -26 6 -10 7 -19 3 -19 -4 0 -8 -45 -8 -101 1 -55 -3
-103 -7 -105 -4 -2 -5 -13 -3 -24 2 -11 -1 -22 -6 -25 -5 -4 -7 -11 -4 -16 4
-5 3 -15 -2 -21 -4 -7 -8 -20 -10 -28 -8 -54 -138 -230 -171 -230 -6 0 -12 -4
-14 -8 -9 -25 -174 -85 -263 -97 -17 -2 -30 -4 -30 -5 0 -1 -13 -3 -30 -4 -16
-2 -55 -6 -85 -10 -109 -13 -155 -18 -182 -20 -15 -1 -31 -5 -34 -9 -4 -4 -16
-7 -26 -7 -10 0 -32 -13 -49 -28 l-32 -28 -2 -175 c-2 -180 4 -220 31 -198 8
6 14 8 14 3 0 -5 29 -9 65 -9 36 0 65 4 65 8 0 4 8 3 18 -2 10 -5 24 -6 32 -1
8 5 21 5 30 0 9 -5 22 -5 30 0 8 5 21 5 30 0 9 -5 22 -5 30 0 8 5 18 6 23 3
14 -9 127 -9 127 0 0 4 8 3 18 -2 10 -5 24 -6 32 -1 8 5 21 5 30 0 9 -5 22 -5
30 0 8 5 21 5 30 0 9 -5 22 -5 30 0 8 5 18 6 23 3 14 -9 127 -9 127 0 0 4 8 3
18 -2 10 -5 24 -6 32 -1 8 5 21 5 30 0 9 -5 22 -5 30 0 8 5 21 5 30 0 9 -5 22
-5 30 0 8 5 18 6 23 3 14 -9 127 -9 127 0 0 4 8 3 18 -2 10 -5 24 -6 32 -1 8
5 21 5 30 0 9 -5 22 -5 30 0 8 5 21 5 30 0 9 -5 22 -5 30 0 8 5 18 6 23 3 14
-9 127 -9 127 0 0 4 8 3 18 -2 10 -5 24 -6 32 -1 8 5 21 5 30 0 9 -5 22 -5 30
0 8 5 21 5 30 0 9 -5 22 -5 30 0 8 5 18 6 23 3 14 -9 127 -9 127 0 0 4 8 3 18
-2 10 -5 24 -6 32 -1 8 5 21 5 30 0 9 -5 22 -5 30 0 8 5 21 5 30 0 9 -5 22 -5
30 0 8 5 18 6 23 3 14 -9 127 -9 127 0 0 4 8 3 18 -2 10 -5 24 -6 32 -1 8 5
21 5 30 0 9 -5 22 -5 30 0 8 5 21 5 30 0 9 -5 22 -5 30 0 8 5 18 6 23 3 14 -9
127 -9 127 0 0 4 8 3 18 -2 10 -5 24 -6 32 -1 8 5 21 5 30 0 9 -5 22 -5 30 0
8 5 21 5 30 0 9 -5 22 -5 30 0 8 5 18 6 23 3 14 -9 127 -9 127 0 0 4 8 3 18
-2 10 -5 24 -6 32 -1 8 5 21 5 30 0 9 -5 22 -5 30 0 8 5 21 5 30 0 9 -5 22 -5
30 0 7 4 23 5 34 1 25 -8 107 -7 130 2 9 4 16 3 16 -2 0 -9 48 -6 58 4 4 4 7
96 8 206 0 179 -1 199 -16 199 -9 0 -20 3 -24 7 -3 4 -12 8 -19 9 -32 5 -76
14 -117 25 -25 6 -54 13 -65 14 -136 22 -445 125 -483 162 -7 7 -16 13 -20 13
-6 0 -44 29 -77 59 -34 30 -90 110 -100 142 -4 13 -11 29 -15 34 -5 6 -16 48
-26 95 -16 77 -17 161 -18 875 0 435 4 808 8 829 9 48 61 101 484 493 l35 33
21 -23 c32 -36 79 -97 116 -152 19 -27 36 -52 40 -55 3 -3 48 -66 100 -140 92
-131 146 -206 176 -243 8 -9 14 -19 14 -22 0 -3 32 -48 70 -100 39 -52 70 -97
70 -100 0 -7 19 -31 43 -53 9 -9 17 -22 17 -29 0 -7 3 -13 8 -13 4 0 12 -8 17
-19 20 -38 80 -121 87 -121 5 0 8 -4 8 -10 0 -5 33 -55 73 -110 155 -213 258
-360 257 -366 -1 -3 5 -11 13 -17 7 -7 36 -43 62 -82 27 -38 53 -71 57 -73 4
-2 8 -8 8 -14 0 -8 37 -63 65 -94 11 -13 104 -147 120 -173 6 -9 13 -18 16
-21 3 -3 20 -27 39 -55 19 -27 36 -52 40 -55 3 -3 25 -34 49 -69 24 -36 48
-70 53 -75 5 -6 97 -135 204 -286 107 -151 201 -283 209 -293 8 -9 15 -22 15
-27 0 -6 5 -10 10 -10 6 0 10 -6 10 -14 0 -8 4 -16 8 -18 8 -3 43 -51 107
-144 42 -61 81 -102 115 -119 33 -17 87 -18 960 -17 509 1 934 3 945 5 19 4
20 12 21 200 1 180 0 198 -18 216 -18 20 -28 23 -75 24 -13 0 -23 3 -23 6 0 4
-17 6 -37 6 -20 -1 -57 2 -82 7 -25 5 -62 10 -81 12 -19 2 -37 5 -40 6 -3 1
-8 2 -13 1 -12 -2 -149 37 -192 54 -84 35 -112 50 -185 98 -98 65 -188 148
-280 257 -30 36 -59 68 -65 72 -5 4 -7 8 -3 8 4 0 -4 12 -18 27 -13 15 -52 65
-86 112 -33 47 -65 88 -69 89 -5 2 -9 10 -9 17 0 7 -3 15 -8 17 -6 3 -70 87
-112 148 -8 12 -45 62 -82 111 -38 50 -68 94 -68 99 0 4 -3 10 -8 12 -4 2 -25
28 -47 58 -22 30 -43 56 -47 58 -5 2 -8 8 -8 13 0 6 -11 22 -25 37 -14 15 -25
32 -25 39 0 7 -4 13 -9 13 -5 0 -23 22 -40 49 -17 27 -41 59 -52 72 -11 13
-28 36 -37 52 -9 15 -20 27 -24 27 -4 0 -8 6 -8 14 0 8 -3 16 -7 18 -7 2 -78
96 -147 193 -88 122 -148 203 -161 216 -8 9 -15 21 -15 27 0 7 -3 12 -7 12 -5
0 -19 17 -33 38 -14 20 -27 39 -30 42 -3 3 -37 48 -75 100 -38 52 -74 100 -79
107 -28 32 -36 43 -36 48 0 4 -20 32 -45 63 -25 31 -48 62 -53 67 -4 6 -20 28
-37 50 -16 22 -35 46 -42 53 -7 7 -13 16 -13 20 0 4 -13 21 -28 39 -15 18 -56
72 -92 120 -36 48 -71 92 -77 96 -7 4 -13 12 -13 18 0 5 -10 21 -22 34 -13 13
-39 45 -58 72 -19 26 -37 50 -40 53 -3 3 -35 43 -70 90 -36 47 -67 87 -70 90
-3 3 -25 32 -50 65 -25 33 -48 62 -51 65 -3 3 -25 32 -50 65 -24 33 -50 66
-56 73 -20 21 -15 35 18 58 16 12 96 84 176 160 80 77 167 159 192 183 25 24
190 186 367 360 176 174 349 341 385 371 35 30 76 67 91 82 16 14 28 23 28 20
0 -4 4 -2 8 3 4 6 34 32 67 58 33 26 69 55 81 64 11 10 27 23 36 28 8 6 67 44
130 85 143 94 136 90 243 149 96 53 255 129 370 176 39 16 73 34 77 40 4 5 8
7 8 3 0 -6 187 67 287 113 23 10 45 19 48 19 3 0 27 10 53 21 26 12 66 30 89
40 72 31 77 48 79 241 0 96 -3 171 -8 175 -9 5 -116 7 -135 2 -5 -1 -12 -1
-18 0 -11 3 -286 3 -300 0 -5 -1 -14 -1 -19 0 -11 2 -448 2 -461 0 -5 -1 -14
-1 -19 0 -23 5 -377 1 -385 -3 -4 -3 -11 -3 -14 0 -4 4 -523 8 -544 3 -5 -1
-12 -1 -17 0 -23 5 -377 1 -385 -3 -4 -3 -11 -3 -14 0 -7 8 -488 6 -496 -2 -3
-3 -6 -93 -6 -200 0 -166 2 -194 15 -194 8 0 34 -7 57 -15 23 -8 56 -17 74
-20 17 -3 40 -10 50 -16 11 -5 19 -8 19 -5 0 2 30 -4 68 -15 37 -11 78 -22 92
-25 14 -2 88 -25 164 -50 181 -59 239 -99 266 -179 19 -58 -10 -163 -62 -230
-5 -5 -22 -28 -38 -50 -17 -22 -40 -53 -53 -70 -28 -38 -130 -146 -287 -306
-1267 -1288 -1794 -1819 -1805 -1819 -7 0 -10 1133 -11 3377 0 3086 -1 3381
-16 3415 -26 58 -57 72 -164 74 -51 1 -95 0 -96 -1z"/>
<path d="M8975 1759 c-27 -5 -59 -11 -70 -13 -11 -2 -28 -7 -37 -10 -9 -4 -22
-9 -30 -10 -7 -1 -23 -8 -35 -14 -13 -7 -23 -10 -23 -8 0 11 -138 -68 -201
-115 -69 -51 -153 -137 -199 -204 -40 -60 -80 -134 -80 -150 0 -8 -5 -15 -12
-15 -6 0 -9 -3 -5 -6 3 -4 0 -19 -8 -34 -8 -15 -23 -71 -34 -124 -54 -263 20
-546 195 -745 37 -42 51 -56 114 -112 34 -30 127 -89 140 -89 5 0 10 -5 10
-10 0 -6 3 -9 8 -8 4 1 16 -3 27 -9 22 -11 122 -46 170 -59 85 -22 259 -29
351 -14 117 18 314 89 314 112 0 5 5 6 10 3 6 -3 10 -1 10 4 0 6 6 11 13 11
29 0 184 144 241 224 75 106 122 214 151 346 20 92 14 303 -12 395 -21 75 -72
198 -85 203 -4 2 -8 10 -8 17 0 20 -95 142 -154 199 -169 161 -391 248 -626
245 -47 -1 -107 -5 -135 -10z"/>
</g>
</svg>
