<?xml version="1.0" encoding="utf-8"?>
<!-- Generator: Adobe Illustrator 23.1.1, SVG Export Plug-In . SVG Version: 6.00 Build 0)  -->
<svg version="1.1" xmlns="http://www.w3.org/2000/svg" xmlns:xlink="http://www.w3.org/1999/xlink" x="0px" y="0px"
	 viewBox="0 0 489.4 510.5" style="enable-background:new 0 0 489.4 510.5;" xml:space="preserve">
<style type="text/css">
	.st0{fill:#FFFFFF;}
	.st1{fill:#85C86E;}
</style>
<g id="Layer_1">
	<g>
		<path class="st0" d="M0,28.1c5.9,0.6,11.3,1,16.6,1.6c10.6,1.4,21.5,1.9,30.2,9.6c11.5,10.2,15.7,23.3,15.6,38.1
			c0,121.9,0,243.9,0,365.8c0,3.4,0.1,6.9-0.1,10.3c-0.7,14.5-8.7,23.6-23.1,26.1c-6.6,1.1-13.3,1.5-19.8,2.6
			c-1.6,0.3-4.3,1.9-4.4,3.1c-0.4,6.1-0.2,12.3-0.2,18.3c53,0,105.1,0,157.1,0c0-7.2,0-14,0-20c-9.9-2.5-19.5-4.2-28.5-7.3
			c-14.2-4.9-20.3-13.9-20.4-28.8c-0.2-25-0.1-50,0-75c0-1.9,0.7-4.4,2-5.7c7.9-7.8,16.1-15.4,24.5-23.2c1.7,2,3.1,3.6,4.4,5.4
			c35.7,50.1,71.5,100.3,107.1,150.5c2.4,3.4,4.7,4.8,8.9,4.7c28.4-0.2,56.9-0.1,85.3-0.1c1.9,0,3.8-0.2,6.1-0.3
			c0-6-0.1-11.6,0-17.1c0.1-3.5-1.5-4.3-4.7-4.5c-4.7-0.3-9.4-1.1-14.1-1.8c-17.8-2.9-29.1-15-39.1-28.5
			c-22.5-30.5-44.7-61.2-67.3-91.6c-13.7-18.5-28-36.5-42.6-55.6c1.7-1.3,3.5-2.5,5-4c12-11.5,24.2-22.7,35.7-34.6
			c16.5-17,34.1-32.4,55.2-43.2c13.6-6.9,28-12.1,42-18.1c1.8-0.8,4.4-2.2,4.5-3.5c0.5-5.9,0.2-11.8,0.2-17.5
			c-47.6,0-94.2,0-140.6,0c0,7.2,0,13.7,0,19.3c11.3,3.2,22,5.5,32.3,9.3c9,3.3,10.7,10.1,5.3,18.1c-3.1,4.6-6.6,9.1-10.5,13.1
			c-32.4,33.1-65,66-97.5,99c-0.4,0.4-1,0.5-2.2,1.2c0-2.9,0-5.1,0-7.4c0-108.6,0-217.2,0-325.8c0-8.3-2.3-10.5-10.2-10
			C84.7,1.8,56.5,3.6,28.4,5.4C19,6,9.6,6.7,0,7.4C0,14.6,0,21,0,28.1z M445,422.1c-24.7-0.1-45,20.2-44.8,44.6
			c0.1,24.3,20.2,43.9,44.9,43.8c24.5-0.1,44.1-19.4,44.3-43.5C489.6,442.2,469.8,422.2,445,422.1z"/>
		<path class="st1" d="M0,28.1C0,21,0,14.6,0,7.4c9.6-0.7,19-1.4,28.4-2c28.2-1.8,56.3-3.6,84.5-5.3c8-0.5,10.2,1.7,10.2,10
			c0,108.6,0,217.2,0,325.8c0,2.3,0,4.6,0,7.4c1.2-0.6,1.9-0.8,2.2-1.2c32.5-33,65.1-65.9,97.5-99c3.9-4,7.4-8.4,10.5-13.1
			c5.3-7.9,3.7-14.7-5.3-18.1c-10.2-3.8-21-6.1-32.3-9.3c0-5.5,0-12.1,0-19.3c46.4,0,93,0,140.6,0c0,5.7,0.3,11.6-0.2,17.5
			c-0.1,1.3-2.8,2.7-4.5,3.5c-14,6.1-28.4,11.2-42,18.1c-21.1,10.7-38.8,26.2-55.2,43.2c-11.6,11.9-23.8,23.1-35.7,34.6
			c-1.5,1.5-3.3,2.7-5,4c14.6,19.1,28.9,37.2,42.6,55.6c22.6,30.4,44.8,61.1,67.3,91.6c10,13.6,21.3,25.6,39.1,28.5
			c4.7,0.8,9.4,1.5,14.1,1.8c3.1,0.2,4.8,1.1,4.7,4.5c-0.2,5.6,0,11.1,0,17.1c-2.4,0.1-4.2,0.3-6.1,0.3c-28.4,0-56.9-0.1-85.3,0.1
			c-4.2,0-6.5-1.4-8.9-4.7c-35.6-50.2-71.4-100.4-107.1-150.5c-1.2-1.7-2.7-3.3-4.4-5.4c-8.3,7.9-16.6,15.4-24.5,23.2
			c-1.3,1.3-2,3.7-2,5.7c-0.1,25-0.2,50,0,75c0.1,14.9,6.2,23.9,20.4,28.8c9.1,3.1,18.6,4.8,28.5,7.3c0,6,0,12.8,0,20
			c-52.1,0-104.1,0-157.1,0c0-6-0.2-12.2,0.2-18.3c0.1-1.2,2.7-2.8,4.4-3.1c6.6-1.1,13.3-1.5,19.8-2.6c14.4-2.4,22.3-11.6,23.1-26.1
			c0.2-3.4,0.1-6.9,0.1-10.3c0-121.9,0-243.9,0-365.8c0-14.9-4.1-27.9-15.6-38.1c-8.7-7.7-19.6-8.3-30.2-9.6
			C11.3,29,5.9,28.6,0,28.1z"/>
		<path class="st1" d="M445,422.1c24.8,0.1,44.6,20.1,44.4,44.9c-0.2,24.1-19.8,43.4-44.3,43.5c-24.7,0.1-44.8-19.5-44.9-43.8
			C400,442.3,420.3,422.1,445,422.1z"/>
	</g>
</g>
<g id="Layer_2">
</g>
</svg>
